<?xml version="1.0" encoding="utf-8"?>
<!-- Generator: Adobe Illustrator 23.1.0, SVG Export Plug-In . SVG Version: 6.00 Build 0)  -->
<svg version="1.1" id="Layer_1" xmlns="http://www.w3.org/2000/svg" xmlns:xlink="http://www.w3.org/1999/xlink" x="0px" y="0px"
	 viewBox="0 0 150 185.33" style="enable-background:new 0 0 150 185.33;" xml:space="preserve">
<style type="text/css">
	.st0{fill-rule:evenodd;clip-rule:evenodd;fill:#F99D3A;}
	.st1{fill-rule:evenodd;clip-rule:evenodd;fill:#E28324;}
	.st2{fill:#FFCE33;}
	.st3{fill:#F89C3A;}
</style>
<g>
	<path id="XMLID_123_" class="st0" d="M23.01,27.65c28.82-28.82,75.55-28.82,104.38,0c28.82,28.82,28.82,75.55,0,104.38
		l-18.19,18.19l-24.04-24.04c8.63-1.85,16.85-6.12,23.56-12.83c18.51-18.51,18.51-48.52,0-67.03c-18.51-18.51-48.52-18.51-67.03,0
		c-18.51,18.51-18.51,48.52,0,67.03l52.19,52.19l-18.67,18.67l-52.19-52.19C-5.82,103.2-5.82,56.47,23.01,27.65L23.01,27.65z"/>
	<path id="XMLID_122_" class="st1" d="M148.72,86.33l-40.01-40c18.51,18.51,18.51,48.52,0,67.03c-6.71,6.71-14.93,10.98-23.56,12.83
		l24.04,24.04l18.19-18.19C140.14,119.27,147.25,103,148.72,86.33"/>
	<g>
		<path class="st2" d="M91.26,78.35c-0.27,8.57-7.36,15.44-16.07,15.44c-8.71,0-15.8-6.87-16.07-15.44H45.6
			c0.08,15.96,13.3,28.88,29.59,28.88c16.29,0,29.51-12.92,29.59-28.88H91.26z"/>
		<path class="st3" d="M104.79,76.36c0-15.64-13.25-28.31-29.59-28.31c-16.34,0-29.59,12.68-29.59,28.31h15.72
			c-0.05,0.46-0.07,0.94-0.07,1.41c0,7.64,6.24,13.83,13.94,13.83c7.7,0,13.94-6.19,13.94-13.83c0-0.48-0.02-0.95-0.07-1.41H104.79z
			"/>
	</g>
</g>
</svg>
