<?xml version="1.0" encoding="utf-8"?>
<!-- Generator: Adobe Illustrator 23.1.0, SVG Export Plug-In . SVG Version: 6.00 Build 0)  -->
<svg version="1.1" id="Layer_1" xmlns="http://www.w3.org/2000/svg" xmlns:xlink="http://www.w3.org/1999/xlink" x="0px" y="0px"
	 viewBox="0 0 454.12 139.47" style="enable-background:new 0 0 454.12 139.47;" xml:space="preserve">
<style type="text/css">
	.st0{fill:#FFFFFF;}
	.st1{fill:#F99D3A;}
</style>
<g>
	<polyline class="st0" points="4.95,7.5 15.64,7.5 15.64,29.85 33.4,7.5 46.57,7.5 26.63,31.06 47.93,57.7 34.76,57.7 19.55,37.53 
		15.64,42.27 15.64,57.7 4.95,57.7 	"/>
	<polygon class="st0" points="99.47,57.7 99.47,21.5 85.32,57.7 80.66,57.7 66.51,21.5 66.51,57.7 55.82,57.7 55.82,7.5 70.8,7.5 
		82.99,38.89 95.18,7.5 110.23,7.5 110.23,57.7 	"/>
	<path class="st0" d="M117.75,32.64c0-15.5,11.67-25.97,26.79-25.97c10.99,0,17.38,5.94,20.92,12.27l-9.18,4.52
		c-2.11-4.07-6.62-7.3-11.74-7.3c-9.18,0-15.81,7-15.81,16.48c0,9.48,6.62,16.48,15.81,16.48c5.12,0,9.63-3.24,11.74-7.3l9.18,4.44
		c-3.54,6.25-9.93,12.34-20.92,12.34C129.42,58.61,117.75,48.07,117.75,32.64"/>
	<g>
		<path class="st1" d="M5.9,73.74h27.9c12.96,0,20.03,8.76,20.03,19.22c0,10.37-7.15,19.05-20.03,19.05H18.6v21.37H5.9V73.74z
			 M32.1,84.64H18.6v16.45h13.5c5.01,0,8.76-3.22,8.76-8.23C40.86,87.95,37.11,84.64,32.1,84.64z"/>
		<path class="st1" d="M93.09,123.09H66.44l-3.76,10.28H48.74L71.8,73.74h15.92l22.98,59.64H96.84L93.09,123.09z M69.84,112.09H89.6
			l-9.84-27.36L69.84,112.09z"/>
		<path class="st1" d="M118.48,115.31c4.2,4.38,10.73,8.05,18.96,8.05c6.97,0,10.37-3.31,10.37-6.71c0-4.47-5.19-5.99-12.07-7.6
			c-9.75-2.24-22.26-4.92-22.26-18.24c0-9.92,8.58-17.97,22.62-17.97c9.48,0,17.35,2.86,23.25,8.32l-7.06,9.3
			c-4.83-4.47-11.27-6.53-17.08-6.53c-5.72,0-8.76,2.5-8.76,6.08c0,4.02,5.01,5.28,11.89,6.89c9.84,2.24,22.35,5.19,22.35,18.42
			c0,10.91-7.78,19.14-23.88,19.14c-11.45,0-19.67-3.84-25.3-9.48L118.48,115.31z"/>
		<path class="st1" d="M172.14,115.31c4.2,4.38,10.73,8.05,18.96,8.05c6.97,0,10.37-3.31,10.37-6.71c0-4.47-5.19-5.99-12.07-7.6
			c-9.75-2.24-22.26-4.92-22.26-18.24c0-9.92,8.58-17.97,22.62-17.97c9.48,0,17.35,2.86,23.25,8.32l-7.06,9.3
			c-4.83-4.47-11.27-6.53-17.08-6.53c-5.72,0-8.76,2.5-8.76,6.08c0,4.02,5.01,5.28,11.89,6.89c9.84,2.24,22.35,5.19,22.35,18.42
			c0,10.91-7.78,19.14-23.88,19.14c-11.45,0-19.67-3.84-25.3-9.48L172.14,115.31z"/>
		<path class="st1" d="M222.93,73.74h27.9c12.96,0,20.03,8.76,20.03,19.22c0,10.37-7.15,19.05-20.03,19.05h-15.2v21.37h-12.7V73.74z
			 M249.13,84.64h-13.5v16.45h13.5c5.01,0,8.76-3.22,8.76-8.23C257.89,87.95,254.13,84.64,249.13,84.64z"/>
		<path class="st1" d="M306.98,72.75c18.06,0,31.21,12.88,31.21,30.85c0,17.97-13.14,30.85-31.21,30.85
			c-17.97,0-31.12-12.88-31.12-30.85C275.87,85.63,289.01,72.75,306.98,72.75z M306.98,84.02c-11,0-18.06,8.41-18.06,19.58
			c0,11.09,7.06,19.58,18.06,19.58s18.15-8.49,18.15-19.58C325.13,92.42,317.98,84.02,306.98,84.02z"/>
		<path class="st1" d="M369.13,112.01h-9.3v21.37h-12.7V73.74h27.9c12.43,0,20.03,8.14,20.03,19.22c0,10.55-6.62,16.18-13.06,17.7
			l13.41,22.71h-14.58L369.13,112.01z M373.16,84.64h-13.32v16.45h13.32c5.1,0,8.94-3.22,8.94-8.23S378.25,84.64,373.16,84.64z"/>
		<path class="st1" d="M417.51,84.91h-17.44V73.74h47.57v11.18H430.3v48.46h-12.79V84.91z"/>
	</g>
</g>
</svg>
